<svg xmlns="http://www.w3.org/2000/svg" xmlns:xlink="http://www.w3.org/1999/xlink" width="400" zoomAndPan="magnify" viewBox="0 0 300 299.999988" height="400" preserveAspectRatio="xMidYMid meet" version="1.2"><defs><clipPath id="ebadb273dc"><path d="M 75.507812 128.496094 L 109 128.496094 L 109 197.496094 L 75.507812 197.496094 Z M 75.507812 128.496094 "/></clipPath></defs><g id="0b3fd985e7"><g clip-rule="nonzero" clip-path="url(#ebadb273dc)"><path style=" stroke:none;fill-rule:evenodd;fill:#ffffff;fill-opacity:1;" d="M 101.972656 189.554688 C 101.695312 189.453125 101.511719 189.390625 101.300781 189.410156 C 100.925781 189.449219 100.558594 189.5 100.179688 189.335938 C 99.980469 189.25 99.75 189.3125 99.535156 189.507812 C 99.269531 189.746094 98.953125 189.984375 98.53125 189.898438 C 98.429688 189.878906 98.304688 189.90625 98.210938 189.957031 C 97.796875 190.167969 97.363281 190.136719 96.921875 190.09375 C 96.4375 190.042969 95.949219 190.101562 95.460938 190.117188 C 95.371094 190.117188 95.28125 190.136719 95.191406 190.128906 C 95.070312 190.121094 94.898438 190.132812 94.917969 189.953125 C 94.929688 189.824219 95.09375 189.855469 95.199219 189.808594 C 94.898438 189.269531 94.40625 189.453125 93.976562 189.5 C 93.671875 189.535156 93.378906 189.585938 93.0625 189.550781 C 92.738281 189.515625 92.425781 189.632812 92.128906 189.796875 C 91.554688 190.125 90.925781 190.074219 90.296875 190.023438 C 90.238281 190.019531 90.203125 189.972656 90.203125 189.910156 C 90.199219 189.695312 90.101562 189.65625 89.925781 189.761719 C 89.429688 190.066406 88.867188 189.980469 88.332031 190 C 86.660156 190.058594 85.011719 189.828125 83.359375 189.605469 C 82.871094 189.539062 82.378906 189.484375 81.886719 189.445312 C 80.894531 189.363281 79.941406 189.144531 79.085938 188.609375 C 78.964844 188.535156 78.851562 188.53125 78.71875 188.5625 C 78.605469 188.59375 78.441406 188.542969 78.4375 188.457031 C 78.421875 188.078125 78.09375 188.078125 77.878906 187.945312 C 77.394531 187.648438 77.238281 187.117188 76.972656 186.664062 C 76.875 186.492188 76.800781 186.308594 76.695312 186.132812 C 76.554688 185.902344 76.484375 185.65625 76.558594 185.355469 C 76.679688 184.875 76.515625 184.378906 76.570312 183.890625 C 76.570312 183.875 76.550781 183.855469 76.554688 183.839844 C 76.757812 182.617188 76.363281 181.410156 76.5 180.1875 C 76.523438 179.972656 76.519531 179.75 76.496094 179.53125 C 76.390625 178.609375 76.382812 177.675781 76.136719 176.769531 C 75.976562 176.1875 76.019531 175.574219 75.949219 174.976562 C 75.878906 174.382812 76.070312 173.777344 75.859375 173.191406 C 75.832031 173.109375 75.832031 173 75.863281 172.921875 C 76.097656 172.296875 75.945312 171.652344 75.972656 171.015625 C 75.980469 170.769531 75.941406 170.519531 75.832031 170.273438 C 75.6875 169.953125 75.652344 169.585938 75.75 169.25 C 75.851562 168.902344 75.84375 168.601562 75.75 168.242188 C 75.640625 167.828125 75.652344 167.371094 75.671875 166.9375 C 75.699219 166.289062 75.582031 165.628906 75.800781 164.988281 C 75.804688 164.972656 75.804688 164.953125 75.800781 164.9375 C 75.515625 164.101562 75.777344 163.277344 75.898438 162.464844 C 76.082031 161.253906 75.917969 160.042969 75.96875 158.839844 C 76 158.097656 75.847656 157.359375 75.953125 156.621094 C 75.988281 156.351562 75.921875 156.078125 75.894531 155.808594 C 75.792969 154.921875 75.871094 154.03125 75.925781 153.144531 C 75.933594 153.019531 75.949219 152.886719 75.929688 152.761719 C 75.796875 151.917969 75.820312 151.066406 75.753906 150.21875 C 75.691406 149.453125 75.765625 148.691406 75.800781 147.925781 C 75.828125 147.355469 75.777344 146.761719 75.78125 146.179688 C 75.789062 144.902344 75.878906 143.628906 75.945312 142.351562 C 76.042969 140.507812 76.132812 138.660156 76.125 136.8125 C 76.117188 135.667969 76.097656 134.523438 76.085938 133.378906 C 76.078125 132.636719 76.257812 131.929688 76.511719 131.242188 C 76.699219 130.726562 76.902344 130.214844 77.085938 129.699219 C 77.136719 129.546875 77.234375 129.453125 77.355469 129.371094 C 77.691406 129.144531 78.03125 128.925781 78.4375 128.851562 C 78.730469 128.804688 78.980469 128.636719 79.265625 128.566406 C 79.519531 128.507812 79.609375 128.609375 79.515625 128.851562 C 79.148438 129.785156 79.117188 130.761719 79.128906 131.746094 C 79.148438 133.390625 79.183594 135.03125 79.214844 136.679688 C 79.226562 137.261719 79.351562 137.847656 79.273438 138.429688 C 79.097656 139.710938 79.335938 140.976562 79.347656 142.246094 C 79.347656 142.355469 79.375 142.46875 79.355469 142.574219 C 79.238281 143.25 79.335938 143.921875 79.335938 144.597656 C 79.339844 145.707031 79.464844 146.8125 79.3125 147.921875 C 79.257812 148.304688 79.378906 148.710938 79.28125 149.105469 C 79.265625 149.171875 79.28125 149.257812 79.308594 149.320312 C 79.613281 150.074219 79.539062 150.863281 79.535156 151.644531 C 79.535156 151.730469 79.535156 151.828125 79.566406 151.910156 C 79.65625 152.179688 79.675781 152.460938 79.617188 152.722656 C 79.476562 153.367188 79.511719 153.984375 79.71875 154.605469 C 79.757812 154.722656 79.769531 154.871094 79.679688 154.972656 C 79.503906 155.171875 79.535156 155.40625 79.597656 155.601562 C 79.75 156.101562 79.636719 156.613281 79.71875 157.109375 C 79.796875 157.605469 79.871094 158.109375 79.832031 158.605469 C 79.761719 159.410156 79.835938 160.207031 79.875 161.003906 C 79.910156 161.675781 79.890625 162.347656 80.054688 163.011719 C 80.132812 163.320312 80.164062 163.664062 80.042969 163.988281 C 79.972656 164.183594 79.996094 164.386719 80.011719 164.585938 C 80.105469 165.773438 80.078125 166.964844 80.097656 168.148438 C 80.128906 169.960938 80.230469 171.769531 80.242188 173.578125 C 80.253906 175.335938 80.304688 177.089844 80.351562 178.847656 C 80.382812 180.054688 80.425781 181.261719 80.476562 182.464844 C 80.503906 183.128906 80.363281 183.777344 80.355469 184.4375 C 80.347656 184.886719 80.375 184.964844 80.792969 184.894531 C 81.5625 184.769531 82.328125 185.007812 83.085938 184.886719 C 83.378906 184.84375 83.566406 185.117188 83.785156 185.089844 C 84.027344 185.0625 84.269531 184.878906 84.515625 184.953125 C 85.648438 185.285156 86.761719 184.925781 87.882812 184.910156 C 88.410156 184.902344 88.9375 184.773438 89.464844 184.945312 C 88.753906 185.023438 88.0625 185.1875 87.363281 185.300781 C 87.371094 185.347656 87.375 185.398438 87.378906 185.445312 C 87.878906 185.425781 88.382812 185.441406 88.875 185.386719 C 90.042969 185.25 91.214844 185.261719 92.382812 185.257812 C 93.738281 185.25 95.09375 185.292969 96.449219 185.253906 C 97.601562 185.222656 98.738281 185.390625 99.878906 185.484375 C 100.492188 185.535156 101.113281 185.453125 101.535156 185.191406 C 101.363281 184.910156 101.09375 184.730469 100.835938 184.546875 C 99.957031 183.921875 99.039062 183.359375 98.132812 182.777344 C 97.367188 182.289062 96.605469 181.742188 96.191406 180.882812 C 95.617188 179.707031 95.113281 178.507812 95.492188 177.148438 C 95.550781 176.9375 95.574219 176.71875 95.609375 176.5 C 95.640625 176.3125 95.734375 176.15625 95.875 176.035156 C 96.035156 175.902344 96.179688 175.878906 96.230469 176.125 C 96.277344 176.347656 96.429688 176.46875 96.589844 176.59375 C 96.734375 176.703125 96.878906 176.820312 97.035156 176.914062 C 99.585938 178.523438 102.007812 180.335938 104.613281 181.855469 C 105.433594 182.332031 106.136719 182.921875 106.835938 183.539062 C 107.21875 183.878906 107.613281 184.203125 108.078125 184.433594 C 108.546875 184.664062 108.726562 185.046875 108.667969 185.5625 C 108.582031 186.328125 108.722656 187.097656 108.695312 187.863281 C 108.691406 187.933594 108.710938 188.015625 108.75 188.070312 C 109.0625 188.542969 108.890625 188.949219 108.65625 189.402344 C 108.183594 190.320312 107.4375 190.9375 106.585938 191.460938 C 105.871094 191.898438 105.128906 192.277344 104.347656 192.59375 C 103.636719 192.878906 102.972656 193.273438 102.296875 193.636719 C 101.027344 194.324219 99.734375 194.960938 98.457031 195.628906 C 98.035156 195.847656 97.632812 196.101562 97.210938 196.320312 C 96.710938 196.582031 96.199219 196.832031 95.6875 197.074219 C 95.257812 197.277344 94.75 197.222656 94.320312 197.433594 C 94.21875 197.480469 94.148438 197.417969 94.070312 197.375 C 93.800781 197.222656 93.535156 197.070312 93.261719 196.925781 C 93.148438 196.867188 93.113281 196.78125 93.097656 196.664062 C 93.058594 196.320312 93 195.980469 92.976562 195.636719 C 92.933594 195.085938 93.113281 194.644531 93.59375 194.316406 C 94.5 193.695312 95.445312 193.140625 96.429688 192.644531 C 98.082031 191.8125 99.707031 190.9375 101.300781 189.992188 C 101.503906 189.871094 101.695312 189.734375 101.972656 189.554688 Z M 97.1875 189.535156 C 97.253906 189.53125 97.324219 189.523438 97.394531 189.523438 C 97.601562 189.523438 97.699219 189.394531 97.667969 189.21875 C 97.636719 189.058594 97.472656 189.101562 97.355469 189.125 C 97.265625 189.140625 97.179688 189.167969 97.097656 189.203125 C 97.003906 189.242188 96.875 189.28125 96.910156 189.414062 C 96.941406 189.539062 97.078125 189.519531 97.1875 189.535156 Z M 99.25 189.28125 C 99.101562 189.164062 98.980469 189.152344 98.867188 189.273438 C 98.855469 189.285156 98.875 189.347656 98.898438 189.363281 C 99.015625 189.453125 99.121094 189.417969 99.25 189.28125 "/></g><g style="fill:#fb4747;fill-opacity:1;"><g transform="translate(147.995084, 196.886936)"><path style="stroke:none" d="M 2.34375 -41.109375 L 12.5625 -41.109375 C 15.8125 -41.109375 18.226562 -40.25 19.8125 -38.53125 C 21.40625 -36.8125 22.203125 -34.285156 22.203125 -30.953125 L 22.203125 -10.15625 C 22.203125 -6.832031 21.40625 -4.304688 19.8125 -2.578125 C 18.226562 -0.859375 15.8125 0 12.5625 0 L 2.34375 0 Z M 8.8125 -35.234375 L 8.8125 -5.875 L 12.453125 -5.875 C 13.472656 -5.875 14.273438 -6.164062 14.859375 -6.75 C 15.441406 -7.34375 15.734375 -8.382812 15.734375 -9.875 L 15.734375 -31.25 C 15.734375 -32.738281 15.441406 -33.773438 14.859375 -34.359375 C 14.273438 -34.941406 13.472656 -35.234375 12.453125 -35.234375 Z M 8.8125 -35.234375 "/></g></g><g style="fill:#fb4747;fill-opacity:1;"><g transform="translate(171.953929, 196.886936)"><path style="stroke:none" d="M 23.265625 0 L 16.734375 0 L 15.625 -7.453125 L 7.6875 -7.453125 L 6.578125 0 L 0.640625 0 L 7.21875 -41.109375 L 16.6875 -41.109375 Z M 8.515625 -13.03125 L 14.75 -13.03125 L 11.625 -33.828125 Z M 8.515625 -13.03125 "/></g></g><g style="fill:#fb4747;fill-opacity:1;"><g transform="translate(195.854055, 196.886936)"><path style="stroke:none" d="M 8.40625 -13.625 L 0.234375 -41.109375 L 6.984375 -41.109375 L 11.921875 -22.375 L 16.859375 -41.109375 L 23.03125 -41.109375 L 14.859375 -13.625 L 14.859375 0 L 8.40625 0 Z M 8.40625 -13.625 "/></g></g><g style="fill:#fb4747;fill-opacity:1;"><g transform="translate(86.34273, 144.180463)"><path style="stroke:none" d="M 2.421875 -42.484375 L 9.109375 -42.484375 L 9.109375 0 L 2.421875 0 Z M 2.421875 -42.484375 "/></g></g><g style="fill:#fb4747;fill-opacity:1;"><g transform="translate(97.876302, 144.180463)"><path style="stroke:none" d="M 8.375 -30.78125 L 8.375 0 L 2.375 0 L 2.375 -42.484375 L 10.75 -42.484375 L 17.609375 -17.0625 L 17.609375 -42.484375 L 23.546875 -42.484375 L 23.546875 0 L 16.6875 0 Z M 8.375 -30.78125 "/></g></g><g style="fill:#fb4747;fill-opacity:1;"><g transform="translate(123.796493, 144.180463)"><path style="stroke:none" d="M 0.484375 -42.484375 L 21.125 -42.484375 L 21.125 -36.421875 L 14.140625 -36.421875 L 14.140625 0 L 7.46875 0 L 7.46875 -36.421875 L 0.484375 -36.421875 Z M 0.484375 -42.484375 "/></g></g><g style="fill:#fb4747;fill-opacity:1;"><g transform="translate(145.40677, 144.180463)"><path style="stroke:none" d="M 9.109375 -24.578125 L 18.265625 -24.578125 L 18.265625 -18.515625 L 9.109375 -18.515625 L 9.109375 -6.0625 L 20.640625 -6.0625 L 20.640625 0 L 2.421875 0 L 2.421875 -42.484375 L 20.640625 -42.484375 L 20.640625 -36.421875 L 9.109375 -36.421875 Z M 9.109375 -24.578125 "/></g></g><g style="fill:#fb4747;fill-opacity:1;"><g transform="translate(167.745487, 144.180463)"><path style="stroke:none" d="M 16.390625 0 C 16.304688 -0.28125 16.222656 -0.539062 16.140625 -0.78125 C 16.066406 -1.03125 16 -1.335938 15.9375 -1.703125 C 15.875 -2.066406 15.832031 -2.53125 15.8125 -3.09375 C 15.789062 -3.664062 15.78125 -4.375 15.78125 -5.21875 L 15.78125 -11.890625 C 15.78125 -13.878906 15.4375 -15.273438 14.75 -16.078125 C 14.0625 -16.890625 12.945312 -17.296875 11.40625 -17.296875 L 9.109375 -17.296875 L 9.109375 0 L 2.421875 0 L 2.421875 -42.484375 L 12.5 -42.484375 C 15.976562 -42.484375 18.5 -41.675781 20.0625 -40.0625 C 21.625 -38.445312 22.40625 -36 22.40625 -32.71875 L 22.40625 -29.375 C 22.40625 -25.007812 20.945312 -22.140625 18.03125 -20.765625 C 19.726562 -20.078125 20.890625 -18.953125 21.515625 -17.390625 C 22.140625 -15.828125 22.453125 -13.9375 22.453125 -11.71875 L 22.453125 -5.15625 C 22.453125 -4.101562 22.492188 -3.179688 22.578125 -2.390625 C 22.660156 -1.609375 22.863281 -0.8125 23.1875 0 Z M 9.109375 -36.421875 L 9.109375 -23.375 L 11.71875 -23.375 C 12.96875 -23.375 13.945312 -23.695312 14.65625 -24.34375 C 15.363281 -24.988281 15.71875 -26.160156 15.71875 -27.859375 L 15.71875 -32.046875 C 15.71875 -33.585938 15.441406 -34.703125 14.890625 -35.390625 C 14.347656 -36.078125 13.492188 -36.421875 12.328125 -36.421875 Z M 9.109375 -36.421875 "/></g></g><g style="fill:#fb4747;fill-opacity:1;"><g transform="translate(192.148111, 144.180463)"><path style="stroke:none" d="M 8.375 -30.78125 L 8.375 0 L 2.375 0 L 2.375 -42.484375 L 10.75 -42.484375 L 17.609375 -17.0625 L 17.609375 -42.484375 L 23.546875 -42.484375 L 23.546875 0 L 16.6875 0 Z M 8.375 -30.78125 "/></g></g><g style="fill:#fbff33;fill-opacity:1;"><g transform="translate(112.244012, 174.44686)"><path style="stroke:none" d="M 6.78125 -10.453125 L 6.78125 -9.109375 L 3.90625 -9.109375 L 3.90625 0 L 2.546875 0 L 2.546875 -9.109375 L 0.796875 -9.109375 L 0.796875 -10.453125 L 2.546875 -10.453125 L 2.546875 -12.9375 C 2.546875 -13.832031 2.8125 -14.550781 3.34375 -15.09375 C 3.863281 -15.625 4.546875 -15.890625 5.390625 -15.890625 C 5.972656 -15.890625 6.421875 -15.785156 6.734375 -15.578125 L 6.734375 -14.171875 C 6.367188 -14.441406 5.972656 -14.578125 5.546875 -14.578125 C 5.054688 -14.578125 4.664062 -14.40625 4.375 -14.0625 C 4.0625 -13.726562 3.90625 -13.300781 3.90625 -12.78125 L 3.90625 -10.453125 Z M 6.78125 -10.453125 "/></g></g><g style="fill:#fbff33;fill-opacity:1;"><g transform="translate(119.977642, 174.44686)"><path style="stroke:none" d="M 6.609375 0.203125 C 5.117188 0.203125 3.84375 -0.320312 2.78125 -1.375 C 1.707031 -2.4375 1.171875 -3.71875 1.171875 -5.21875 C 1.171875 -6.726562 1.707031 -8.015625 2.78125 -9.078125 C 3.84375 -10.128906 5.117188 -10.65625 6.609375 -10.65625 C 8.109375 -10.65625 9.390625 -10.128906 10.453125 -9.078125 C 11.515625 -8.015625 12.046875 -6.726562 12.046875 -5.21875 C 12.046875 -3.71875 11.515625 -2.4375 10.453125 -1.375 C 9.390625 -0.320312 8.109375 0.203125 6.609375 0.203125 Z M 6.609375 -1.15625 C 7.734375 -1.15625 8.691406 -1.550781 9.484375 -2.34375 C 10.285156 -3.132812 10.6875 -4.09375 10.6875 -5.21875 C 10.6875 -6.351562 10.285156 -7.316406 9.484375 -8.109375 C 8.691406 -8.898438 7.734375 -9.296875 6.609375 -9.296875 C 5.472656 -9.296875 4.519531 -8.898438 3.75 -8.109375 C 2.945312 -7.316406 2.546875 -6.351562 2.546875 -5.21875 C 2.546875 -4.09375 2.945312 -3.132812 3.75 -2.34375 C 4.519531 -1.550781 5.472656 -1.15625 6.609375 -1.15625 Z M 6.609375 -1.15625 "/></g></g><g style="fill:#fbff33;fill-opacity:1;"><g transform="translate(133.835243, 174.44686)"><path style="stroke:none" d="M 6.203125 -10.65625 C 6.585938 -10.65625 6.953125 -10.585938 7.296875 -10.453125 L 7.296875 -9.046875 C 6.921875 -9.210938 6.566406 -9.296875 6.234375 -9.296875 C 5.410156 -9.296875 4.71875 -8.972656 4.15625 -8.328125 C 3.582031 -7.648438 3.296875 -6.828125 3.296875 -5.859375 L 3.296875 0 L 1.9375 0 L 1.9375 -10.453125 L 3.296875 -10.453125 L 3.296875 -8.65625 C 3.910156 -9.988281 4.878906 -10.65625 6.203125 -10.65625 Z M 6.203125 -10.65625 "/></g></g><g style="fill:#fbff33;fill-opacity:1;"><g transform="translate(127.45781, 193.517318)"><path style="stroke:none" d="M 10.6875 -10.453125 L 12.046875 -10.453125 L 12.046875 0 L 10.6875 0 L 10.6875 -1.859375 C 9.695312 -0.484375 8.285156 0.203125 6.453125 0.203125 C 5.023438 0.203125 3.785156 -0.332031 2.734375 -1.40625 C 1.691406 -2.457031 1.171875 -3.726562 1.171875 -5.21875 C 1.171875 -6.71875 1.691406 -8.003906 2.734375 -9.078125 C 3.785156 -10.128906 5.023438 -10.65625 6.453125 -10.65625 C 8.285156 -10.65625 9.695312 -9.96875 10.6875 -8.59375 Z M 6.609375 -1.15625 C 7.734375 -1.15625 8.691406 -1.550781 9.484375 -2.34375 C 10.285156 -3.132812 10.6875 -4.09375 10.6875 -5.21875 C 10.6875 -6.351562 10.285156 -7.316406 9.484375 -8.109375 C 8.691406 -8.898438 7.734375 -9.296875 6.609375 -9.296875 C 5.492188 -9.296875 4.539062 -8.898438 3.75 -8.109375 C 2.945312 -7.316406 2.546875 -6.351562 2.546875 -5.21875 C 2.546875 -4.09375 2.945312 -3.132812 3.75 -2.34375 C 4.539062 -1.550781 5.492188 -1.15625 6.609375 -1.15625 Z M 6.609375 -1.15625 "/></g></g><g style="fill:#ffffff;fill-opacity:1;"><g transform="translate(113.009887, 212.647877)"><path style="stroke:none" d="M 5.3125 -5.640625 L 6.578125 -5.640625 L 6.578125 0 C 6.578125 0.8125 6.285156 1.492188 5.703125 2.046875 C 5.109375 2.617188 4.382812 2.90625 3.53125 2.90625 C 2.988281 2.90625 2.476562 2.769531 2 2.5 C 1.507812 2.25 1.113281 1.894531 0.8125 1.4375 L 1.6875 0.671875 C 1.875 1.003906 2.128906 1.269531 2.453125 1.46875 C 2.773438 1.664062 3.128906 1.765625 3.515625 1.765625 C 4.003906 1.765625 4.425781 1.597656 4.78125 1.265625 C 5.132812 0.929688 5.3125 0.507812 5.3125 0 L 5.3125 -0.609375 C 4.8125 -0.128906 4.179688 0.109375 3.421875 0.109375 C 2.617188 0.109375 1.941406 -0.175781 1.390625 -0.75 C 0.828125 -1.3125 0.546875 -2.003906 0.546875 -2.828125 C 0.546875 -3.640625 0.828125 -4.332031 1.390625 -4.90625 C 1.941406 -5.46875 2.617188 -5.75 3.421875 -5.75 C 4.171875 -5.75 4.800781 -5.503906 5.3125 -5.015625 Z M 3.5625 -1.078125 C 4.039062 -1.078125 4.457031 -1.25 4.8125 -1.59375 C 5.144531 -1.925781 5.3125 -2.335938 5.3125 -2.828125 C 5.3125 -3.304688 5.144531 -3.71875 4.8125 -4.0625 C 4.46875 -4.394531 4.050781 -4.5625 3.5625 -4.5625 C 3.070312 -4.5625 2.660156 -4.394531 2.328125 -4.0625 C 1.984375 -3.71875 1.8125 -3.304688 1.8125 -2.828125 C 1.8125 -2.335938 1.984375 -1.921875 2.328125 -1.578125 C 2.660156 -1.242188 3.070312 -1.078125 3.5625 -1.078125 Z M 3.5625 -1.078125 "/></g></g><g style="fill:#ffffff;fill-opacity:1;"><g transform="translate(120.708864, 212.647877)"><path style="stroke:none" d="M 3.5625 0.109375 C 2.71875 0.109375 2.007812 -0.175781 1.4375 -0.75 C 0.84375 -1.3125 0.546875 -2.003906 0.546875 -2.828125 C 0.546875 -3.640625 0.84375 -4.332031 1.4375 -4.90625 C 2.007812 -5.46875 2.71875 -5.75 3.5625 -5.75 C 4.394531 -5.75 5.109375 -5.46875 5.703125 -4.90625 C 6.285156 -4.332031 6.578125 -3.640625 6.578125 -2.828125 C 6.578125 -2.003906 6.285156 -1.3125 5.703125 -0.75 C 5.109375 -0.175781 4.394531 0.109375 3.5625 0.109375 Z M 3.5625 -1.078125 C 4.050781 -1.078125 4.46875 -1.242188 4.8125 -1.578125 C 5.144531 -1.921875 5.3125 -2.335938 5.3125 -2.828125 C 5.3125 -3.304688 5.144531 -3.71875 4.8125 -4.0625 C 4.46875 -4.394531 4.050781 -4.5625 3.5625 -4.5625 C 3.070312 -4.5625 2.660156 -4.394531 2.328125 -4.0625 C 1.984375 -3.71875 1.8125 -3.304688 1.8125 -2.828125 C 1.8125 -2.335938 1.984375 -1.921875 2.328125 -1.578125 C 2.660156 -1.242188 3.070312 -1.078125 3.5625 -1.078125 Z M 3.5625 -1.078125 "/></g></g><g style="fill:#ffffff;fill-opacity:1;"><g transform="translate(128.013323, 212.647877)"><path style="stroke:none" d="M 1.28125 0.109375 C 1.0625 0.109375 0.878906 0.0351562 0.734375 -0.109375 C 0.578125 -0.265625 0.5 -0.445312 0.5 -0.65625 C 0.5 -0.863281 0.578125 -1.046875 0.734375 -1.203125 C 0.878906 -1.347656 1.0625 -1.421875 1.28125 -1.421875 C 1.488281 -1.421875 1.664062 -1.347656 1.8125 -1.203125 C 1.96875 -1.046875 2.046875 -0.863281 2.046875 -0.65625 C 2.046875 -0.445312 1.96875 -0.265625 1.8125 -0.109375 C 1.664062 0.0351562 1.488281 0.109375 1.28125 0.109375 Z M 1.28125 0.109375 "/></g></g><g style="fill:#ffffff;fill-opacity:1;"><g transform="translate(130.741332, 212.647877)"><path style="stroke:none" d="M 3.109375 0.109375 C 2.390625 0.109375 1.820312 -0.0859375 1.40625 -0.484375 C 0.988281 -0.878906 0.78125 -1.414062 0.78125 -2.09375 L 0.78125 -5.640625 L 2.046875 -5.640625 L 2.046875 -2.234375 C 2.046875 -1.878906 2.144531 -1.597656 2.34375 -1.390625 C 2.539062 -1.179688 2.796875 -1.078125 3.109375 -1.078125 C 3.429688 -1.078125 3.6875 -1.179688 3.875 -1.390625 C 4.070312 -1.597656 4.171875 -1.878906 4.171875 -2.234375 L 4.171875 -5.640625 L 5.4375 -5.640625 L 5.4375 -2.09375 C 5.4375 -1.414062 5.226562 -0.878906 4.8125 -0.484375 C 4.394531 -0.0859375 3.828125 0.109375 3.109375 0.109375 Z M 3.109375 0.109375 "/></g></g><g style="fill:#ffffff;fill-opacity:1;"><g transform="translate(137.132749, 212.647877)"><path style="stroke:none" d="M 6.796875 -5.75 C 7.390625 -5.75 7.890625 -5.539062 8.296875 -5.125 C 8.691406 -4.695312 8.890625 -4.179688 8.890625 -3.578125 L 8.890625 0 L 7.640625 0 L 7.640625 -3.515625 C 7.640625 -3.804688 7.539062 -4.054688 7.34375 -4.265625 C 7.144531 -4.460938 6.894531 -4.5625 6.59375 -4.5625 C 6.289062 -4.5625 6.039062 -4.457031 5.84375 -4.25 C 5.644531 -4.039062 5.546875 -3.78125 5.546875 -3.46875 L 5.546875 0 L 4.296875 0 L 4.296875 -3.515625 C 4.296875 -3.804688 4.195312 -4.054688 4 -4.265625 C 3.789062 -4.460938 3.539062 -4.5625 3.25 -4.5625 C 2.9375 -4.5625 2.6875 -4.457031 2.5 -4.25 C 2.300781 -4.039062 2.203125 -3.78125 2.203125 -3.46875 L 2.203125 0 L 0.953125 0 L 0.953125 -5.640625 L 2.203125 -5.640625 L 2.203125 -5.09375 C 2.554688 -5.53125 3.003906 -5.75 3.546875 -5.75 C 3.847656 -5.75 4.140625 -5.675781 4.421875 -5.53125 C 4.703125 -5.375 4.9375 -5.160156 5.125 -4.890625 C 5.539062 -5.460938 6.097656 -5.75 6.796875 -5.75 Z M 6.796875 -5.75 "/></g></g><g style="fill:#ffffff;fill-opacity:1;"><g transform="translate(147.029773, 212.647877)"><path style="stroke:none" d="M 5.25 -8.46875 L 6.5 -8.46875 L 6.5 0 L 5.25 0 L 5.25 -0.671875 C 4.769531 -0.148438 4.132812 0.109375 3.34375 0.109375 C 2.582031 0.109375 1.925781 -0.175781 1.375 -0.75 C 0.820312 -1.320312 0.546875 -2.015625 0.546875 -2.828125 C 0.546875 -3.628906 0.820312 -4.316406 1.375 -4.890625 C 1.925781 -5.460938 2.582031 -5.75 3.34375 -5.75 C 4.132812 -5.75 4.769531 -5.488281 5.25 -4.96875 Z M 3.5625 -1.078125 C 4.050781 -1.078125 4.46875 -1.242188 4.8125 -1.578125 C 5.144531 -1.921875 5.3125 -2.335938 5.3125 -2.828125 C 5.3125 -3.304688 5.144531 -3.71875 4.8125 -4.0625 C 4.46875 -4.394531 4.050781 -4.5625 3.5625 -4.5625 C 3.070312 -4.5625 2.660156 -4.394531 2.328125 -4.0625 C 1.984375 -3.71875 1.8125 -3.304688 1.8125 -2.828125 C 1.8125 -2.335938 1.984375 -1.921875 2.328125 -1.578125 C 2.660156 -1.242188 3.070312 -1.078125 3.5625 -1.078125 Z M 3.5625 -1.078125 "/></g></g><g style="fill:#ffffff;fill-opacity:1;"><g transform="translate(154.64985, 212.647877)"><path style="stroke:none" d="M 1.28125 0.109375 C 1.0625 0.109375 0.878906 0.0351562 0.734375 -0.109375 C 0.578125 -0.265625 0.5 -0.445312 0.5 -0.65625 C 0.5 -0.863281 0.578125 -1.046875 0.734375 -1.203125 C 0.878906 -1.347656 1.0625 -1.421875 1.28125 -1.421875 C 1.488281 -1.421875 1.664062 -1.347656 1.8125 -1.203125 C 1.96875 -1.046875 2.046875 -0.863281 2.046875 -0.65625 C 2.046875 -0.445312 1.96875 -0.265625 1.8125 -0.109375 C 1.664062 0.0351562 1.488281 0.109375 1.28125 0.109375 Z M 1.28125 0.109375 "/></g></g><g style="fill:#ffffff;fill-opacity:1;"><g transform="translate(157.377859, 212.647877)"><path style="stroke:none" d="M 6.4375 -2.859375 L 6.421875 -2.59375 L 1.8125 -2.59375 C 1.863281 -2.125 2.050781 -1.742188 2.375 -1.453125 C 2.695312 -1.148438 3.085938 -1 3.546875 -1 C 4.210938 -1 4.71875 -1.285156 5.0625 -1.859375 L 6.140625 -1.4375 C 5.898438 -0.957031 5.550781 -0.578125 5.09375 -0.296875 C 4.632812 -0.0234375 4.125 0.109375 3.5625 0.109375 C 2.664062 0.109375 1.941406 -0.171875 1.390625 -0.734375 C 0.828125 -1.285156 0.546875 -1.984375 0.546875 -2.828125 C 0.546875 -3.648438 0.832031 -4.34375 1.40625 -4.90625 C 1.96875 -5.46875 2.675781 -5.75 3.53125 -5.75 C 4.351562 -5.75 5.039062 -5.476562 5.59375 -4.9375 C 6.144531 -4.394531 6.425781 -3.703125 6.4375 -2.859375 Z M 3.515625 -4.65625 C 3.148438 -4.65625 2.828125 -4.554688 2.546875 -4.359375 C 2.265625 -4.160156 2.0625 -3.890625 1.9375 -3.546875 L 5.046875 -3.546875 C 4.929688 -3.898438 4.742188 -4.171875 4.484375 -4.359375 C 4.210938 -4.554688 3.890625 -4.65625 3.515625 -4.65625 Z M 3.515625 -4.65625 "/></g></g><g style="fill:#ffffff;fill-opacity:1;"><g transform="translate(164.535782, 212.647877)"><path style="stroke:none" d="M 5.25 -8.46875 L 6.5 -8.46875 L 6.5 0 L 5.25 0 L 5.25 -0.671875 C 4.769531 -0.148438 4.132812 0.109375 3.34375 0.109375 C 2.582031 0.109375 1.925781 -0.175781 1.375 -0.75 C 0.820312 -1.320312 0.546875 -2.015625 0.546875 -2.828125 C 0.546875 -3.628906 0.820312 -4.316406 1.375 -4.890625 C 1.925781 -5.460938 2.582031 -5.75 3.34375 -5.75 C 4.132812 -5.75 4.769531 -5.488281 5.25 -4.96875 Z M 3.5625 -1.078125 C 4.050781 -1.078125 4.46875 -1.242188 4.8125 -1.578125 C 5.144531 -1.921875 5.3125 -2.335938 5.3125 -2.828125 C 5.3125 -3.304688 5.144531 -3.71875 4.8125 -4.0625 C 4.46875 -4.394531 4.050781 -4.5625 3.5625 -4.5625 C 3.070312 -4.5625 2.660156 -4.394531 2.328125 -4.0625 C 1.984375 -3.71875 1.8125 -3.304688 1.8125 -2.828125 C 1.8125 -2.335938 1.984375 -1.921875 2.328125 -1.578125 C 2.660156 -1.242188 3.070312 -1.078125 3.5625 -1.078125 Z M 3.5625 -1.078125 "/></g></g><g style="fill:#ffffff;fill-opacity:1;"><g transform="translate(172.155859, 212.647877)"><path style="stroke:none" d="M 3.109375 0.109375 C 2.390625 0.109375 1.820312 -0.0859375 1.40625 -0.484375 C 0.988281 -0.878906 0.78125 -1.414062 0.78125 -2.09375 L 0.78125 -5.640625 L 2.046875 -5.640625 L 2.046875 -2.234375 C 2.046875 -1.878906 2.144531 -1.597656 2.34375 -1.390625 C 2.539062 -1.179688 2.796875 -1.078125 3.109375 -1.078125 C 3.429688 -1.078125 3.6875 -1.179688 3.875 -1.390625 C 4.070312 -1.597656 4.171875 -1.878906 4.171875 -2.234375 L 4.171875 -5.640625 L 5.4375 -5.640625 L 5.4375 -2.09375 C 5.4375 -1.414062 5.226562 -0.878906 4.8125 -0.484375 C 4.394531 -0.0859375 3.828125 0.109375 3.109375 0.109375 Z M 3.109375 0.109375 "/></g></g><g style="fill:#ffffff;fill-opacity:1;"><g transform="translate(178.547276, 212.647877)"><path style="stroke:none" d="M -0.1875 2.046875 L 5.78125 -9.390625 L 6.96875 -9.390625 L 1 2.046875 Z M -0.1875 2.046875 "/></g></g><g style="fill:#ffffff;fill-opacity:1;"><g transform="translate(185.660104, 212.647877)"><path style="stroke:none" d="M 1.5625 -7.046875 C 1.351562 -7.046875 1.175781 -7.125 1.03125 -7.28125 C 0.875 -7.414062 0.796875 -7.59375 0.796875 -7.8125 C 0.796875 -8.019531 0.875 -8.195312 1.03125 -8.34375 C 1.175781 -8.5 1.351562 -8.578125 1.5625 -8.578125 C 1.78125 -8.578125 1.960938 -8.5 2.109375 -8.34375 C 2.253906 -8.195312 2.328125 -8.019531 2.328125 -7.8125 C 2.328125 -7.59375 2.253906 -7.414062 2.109375 -7.28125 C 1.960938 -7.125 1.78125 -7.046875 1.5625 -7.046875 Z M 0.9375 0 L 0.9375 -5.640625 L 2.203125 -5.640625 L 2.203125 0 Z M 0.9375 0 "/></g></g><g style="fill:#ffffff;fill-opacity:1;"><g transform="translate(188.985528, 212.647877)"><path style="stroke:none" d="M 3.953125 -5.640625 L 3.953125 -4.5625 L 2.5 -4.5625 L 2.5 0 L 1.25 0 L 1.25 -4.5625 L 0.296875 -4.5625 L 0.296875 -5.640625 L 1.25 -5.640625 L 1.25 -6.6875 C 1.25 -7.269531 1.414062 -7.726562 1.75 -8.0625 C 2.082031 -8.40625 2.523438 -8.578125 3.078125 -8.578125 C 3.472656 -8.578125 3.753906 -8.519531 3.921875 -8.40625 L 3.921875 -7.203125 C 3.742188 -7.347656 3.53125 -7.421875 3.28125 -7.421875 C 3.050781 -7.421875 2.863281 -7.34375 2.71875 -7.1875 C 2.570312 -7.019531 2.5 -6.800781 2.5 -6.53125 L 2.5 -5.640625 Z M 3.953125 -5.640625 "/></g></g><g style="fill:#ffffff;fill-opacity:1;"><g transform="translate(193.201447, 212.647877)"><path style="stroke:none" d="M 5.28125 -5.640625 L 6.546875 -5.640625 L 6.546875 0 L 5.28125 0 L 5.28125 -0.703125 C 4.789062 -0.160156 4.144531 0.109375 3.34375 0.109375 C 2.582031 0.109375 1.925781 -0.175781 1.375 -0.75 C 0.820312 -1.320312 0.546875 -2.015625 0.546875 -2.828125 C 0.546875 -3.628906 0.820312 -4.316406 1.375 -4.890625 C 1.925781 -5.460938 2.582031 -5.75 3.34375 -5.75 C 4.144531 -5.75 4.789062 -5.476562 5.28125 -4.9375 Z M 3.5625 -1.078125 C 4.050781 -1.078125 4.46875 -1.242188 4.8125 -1.578125 C 5.144531 -1.921875 5.3125 -2.335938 5.3125 -2.828125 C 5.3125 -3.304688 5.144531 -3.71875 4.8125 -4.0625 C 4.46875 -4.394531 4.050781 -4.5625 3.5625 -4.5625 C 3.070312 -4.5625 2.660156 -4.394531 2.328125 -4.0625 C 1.984375 -3.71875 1.8125 -3.304688 1.8125 -2.828125 C 1.8125 -2.335938 1.984375 -1.921875 2.328125 -1.578125 C 2.660156 -1.242188 3.070312 -1.078125 3.5625 -1.078125 Z M 3.5625 -1.078125 "/></g></g><g style="fill:#ffffff;fill-opacity:1;"><g transform="translate(200.866611, 212.647877)"><path style="stroke:none" d="M 5.25 -8.46875 L 6.5 -8.46875 L 6.5 0 L 5.25 0 L 5.25 -0.671875 C 4.769531 -0.148438 4.132812 0.109375 3.34375 0.109375 C 2.582031 0.109375 1.925781 -0.175781 1.375 -0.75 C 0.820312 -1.320312 0.546875 -2.015625 0.546875 -2.828125 C 0.546875 -3.628906 0.820312 -4.316406 1.375 -4.890625 C 1.925781 -5.460938 2.582031 -5.75 3.34375 -5.75 C 4.132812 -5.75 4.769531 -5.488281 5.25 -4.96875 Z M 3.5625 -1.078125 C 4.050781 -1.078125 4.46875 -1.242188 4.8125 -1.578125 C 5.144531 -1.921875 5.3125 -2.335938 5.3125 -2.828125 C 5.3125 -3.304688 5.144531 -3.71875 4.8125 -4.0625 C 4.46875 -4.394531 4.050781 -4.5625 3.5625 -4.5625 C 3.070312 -4.5625 2.660156 -4.394531 2.328125 -4.0625 C 1.984375 -3.71875 1.8125 -3.304688 1.8125 -2.828125 C 1.8125 -2.335938 1.984375 -1.921875 2.328125 -1.578125 C 2.660156 -1.242188 3.070312 -1.078125 3.5625 -1.078125 Z M 3.5625 -1.078125 "/></g></g></g></svg>